<?xml version="1.0" encoding="utf-8"?>
<!-- Generator: Adobe Illustrator 20.1.0, SVG Export Plug-In . SVG Version: 6.00 Build 0)  -->
<svg version="1.1" id="Layer_1" xmlns="http://www.w3.org/2000/svg" xmlns:xlink="http://www.w3.org/1999/xlink" x="0px" y="0px"
	 viewBox="0 0 495 309.4" style="enable-background:new 0 0 495 309.4;" xml:space="preserve">
<style type="text/css">
	.st0{clip-path:url(#SVGID_2_);fill:url(#SVGID_3_);}
	.st1{clip-path:url(#SVGID_5_);fill:url(#SVGID_6_);}
	.st2{clip-path:url(#SVGID_8_);fill:url(#SVGID_9_);}
	.st3{clip-path:url(#SVGID_11_);fill:url(#SVGID_12_);}
</style>
<g>
	<defs>
		<polygon id="SVGID_1_" points="212.6,225.5 413.2,225.5 413.2,27 		"/>
	</defs>
	<clipPath id="SVGID_2_">
		<use xlink:href="#SVGID_1_"  style="overflow:visible;"/>
	</clipPath>
	
		<linearGradient id="SVGID_3_" gradientUnits="userSpaceOnUse" x1="-174.9473" y1="452.9421" x2="-170.4963" y2="452.9421" gradientTransform="matrix(-110.0176 0 0 110.0176 -18760.3809 -49705.3594)">
		<stop  offset="0" style="stop-color:#36BEE1"/>
		<stop  offset="0.2024" style="stop-color:#36BDE0"/>
		<stop  offset="0.2754" style="stop-color:#35B8DD"/>
		<stop  offset="0.3274" style="stop-color:#32B0D8"/>
		<stop  offset="0.3694" style="stop-color:#2FA5D0"/>
		<stop  offset="0.4054" style="stop-color:#2B98C6"/>
		<stop  offset="0.4373" style="stop-color:#2888BB"/>
		<stop  offset="0.4661" style="stop-color:#2575AE"/>
		<stop  offset="0.4927" style="stop-color:#2062A0"/>
		<stop  offset="0.5163" style="stop-color:#1D4D92"/>
		<stop  offset="0.5241" style="stop-color:#1E458E"/>
		<stop  offset="1" style="stop-color:#252868"/>
	</linearGradient>
	<rect x="212.6" y="27" class="st0" width="200.6" height="198.6"/>
</g>
<g>
	<defs>
		<path id="SVGID_4_" d="M44,118.8C44,105.7,54.7,95,67.8,95c13.1,0,23.8,10.7,23.8,23.8c0,13.1-10.7,23.8-23.8,23.8
			C54.7,142.7,44,132,44,118.8 M32,118.8c0,11.9,5.8,22.4,14.7,28.9c-24.9,9.1-43,36-43,67.8c0,3.3,2.7,6,6,6c3.3,0,6-2.7,6-6
			c0-32.6,22.2-59.1,49.5-59.1c27.3,0,49.5,26.5,49.5,59.1c0,3.3,2.7,6,6,6s6-2.7,6-6c0-30.4-16.6-56.3-39.8-66.5
			c10-6.4,16.7-17.5,16.7-30.2c0-19.7-16.1-35.8-35.8-35.8C48.1,83,32,99.1,32,118.8"/>
	</defs>
	<clipPath id="SVGID_5_">
		<use xlink:href="#SVGID_4_"  style="overflow:visible;"/>
	</clipPath>
	
		<linearGradient id="SVGID_6_" gradientUnits="userSpaceOnUse" x1="-174.9473" y1="453.1257" x2="-170.4963" y2="453.1257" gradientTransform="matrix(-110.0176 0 0 110.0176 -18760.3809 -49699.5078)">
		<stop  offset="0" style="stop-color:#36BEE1"/>
		<stop  offset="0.2024" style="stop-color:#36BDE0"/>
		<stop  offset="0.2754" style="stop-color:#35B8DD"/>
		<stop  offset="0.3274" style="stop-color:#32B0D8"/>
		<stop  offset="0.3694" style="stop-color:#2FA5D0"/>
		<stop  offset="0.4054" style="stop-color:#2B98C6"/>
		<stop  offset="0.4373" style="stop-color:#2888BB"/>
		<stop  offset="0.4661" style="stop-color:#2575AE"/>
		<stop  offset="0.4927" style="stop-color:#2062A0"/>
		<stop  offset="0.5163" style="stop-color:#1D4D92"/>
		<stop  offset="0.5241" style="stop-color:#1E458E"/>
		<stop  offset="1" style="stop-color:#252868"/>
	</linearGradient>
	<rect x="3.7" y="83" class="st1" width="123" height="138.5"/>
</g>
<g>
	<defs>
		<path id="SVGID_7_" d="M71.9,0c-11.6,0-21,9.4-21,21v45.7c0,3.3,2.7,6,6,6c3.3,0,6-2.7,6-6V21c0-4.9,4-9,9-9h348.3c4.9,0,9,4,9,9
			v223.5c0,0.4,0,0.8,0.1,1.2c0,0.1,0,0.1,0.1,0.2c0,0.1,0.1,0.2,0.1,0.4c0,0.1,0.1,0.2,0.1,0.3c0,0.1,0,0.1,0.1,0.2
			c0,0.1,0.1,0.2,0.2,0.4c0,0.1,0,0.1,0.1,0.2c0.1,0.1,0.1,0.2,0.2,0.3c0,0.1,0.1,0.1,0.1,0.2c0.1,0.1,0.1,0.2,0.2,0.3
			c0,0.1,0.1,0.1,0.2,0.2c0,0.1,0.1,0.1,0.2,0.2c0.1,0.1,0.1,0.2,0.2,0.2c0,0,0.1,0.1,0.1,0.1c0.1,0.1,0.2,0.2,0.3,0.3
			c0,0,0.1,0.1,0.1,0.1c0.1,0.1,0.2,0.2,0.3,0.2c0.1,0,0.1,0.1,0.2,0.1c0.1,0.1,0.2,0.1,0.3,0.2c0.1,0.1,0.3,0.1,0.4,0.2
			c0,0,0.1,0,0.1,0.1c0.4,0.2,0.8,0.3,1.2,0.4l49.1,10v37H12v-26.1l46.2-20.8h350c3.3,0,6-2.7,6-6c0-3.3-2.7-6-6-6H55.6L0,263.6
			v45.8h495v-58.8l-53.9-11V21c0-11.6-9.4-21-21-21H71.9z"/>
	</defs>
	<clipPath id="SVGID_8_">
		<use xlink:href="#SVGID_7_"  style="overflow:visible;"/>
	</clipPath>
	
		<linearGradient id="SVGID_9_" gradientUnits="userSpaceOnUse" x1="-174.9473" y1="453.1425" x2="-170.4963" y2="453.1425" gradientTransform="matrix(-110.0176 0 0 110.0176 -18760.3809 -49698.9688)">
		<stop  offset="0" style="stop-color:#36BEE1"/>
		<stop  offset="0.2024" style="stop-color:#36BDE0"/>
		<stop  offset="0.2754" style="stop-color:#35B8DD"/>
		<stop  offset="0.3274" style="stop-color:#32B0D8"/>
		<stop  offset="0.3694" style="stop-color:#2FA5D0"/>
		<stop  offset="0.4054" style="stop-color:#2B98C6"/>
		<stop  offset="0.4373" style="stop-color:#2888BB"/>
		<stop  offset="0.4661" style="stop-color:#2575AE"/>
		<stop  offset="0.4927" style="stop-color:#2062A0"/>
		<stop  offset="0.5163" style="stop-color:#1D4D92"/>
		<stop  offset="0.5241" style="stop-color:#1E458E"/>
		<stop  offset="1" style="stop-color:#252868"/>
	</linearGradient>
	<rect x="0" y="0" class="st2" width="495" height="309.4"/>
</g>
<g>
	<defs>
		<path id="SVGID_10_" d="M202.1,276.4c-3.3,0-6,2.7-6,6c0,3.3,2.7,6,6,6h90.8c3.3,0,6-2.7,6-6c0-3.3-2.7-6-6-6H202.1z"/>
	</defs>
	<clipPath id="SVGID_11_">
		<use xlink:href="#SVGID_10_"  style="overflow:visible;"/>
	</clipPath>
	
		<linearGradient id="SVGID_12_" gradientUnits="userSpaceOnUse" x1="-174.9473" y1="454.0428" x2="-170.4963" y2="454.0428" gradientTransform="matrix(-110.0176 0 0 110.0176 -18760.3809 -49670.2695)">
		<stop  offset="0" style="stop-color:#36BEE1"/>
		<stop  offset="0.2024" style="stop-color:#36BDE0"/>
		<stop  offset="0.2754" style="stop-color:#35B8DD"/>
		<stop  offset="0.3274" style="stop-color:#32B0D8"/>
		<stop  offset="0.3694" style="stop-color:#2FA5D0"/>
		<stop  offset="0.4054" style="stop-color:#2B98C6"/>
		<stop  offset="0.4373" style="stop-color:#2888BB"/>
		<stop  offset="0.4661" style="stop-color:#2575AE"/>
		<stop  offset="0.4927" style="stop-color:#2062A0"/>
		<stop  offset="0.5163" style="stop-color:#1D4D92"/>
		<stop  offset="0.5241" style="stop-color:#1E458E"/>
		<stop  offset="1" style="stop-color:#252868"/>
	</linearGradient>
	<rect x="196.1" y="276.4" class="st3" width="102.8" height="12"/>
</g>
</svg>
