<svg id="Layer_1" data-name="Layer 1" xmlns="http://www.w3.org/2000/svg" viewBox="0 0 50 50"><defs><style>.cls-1,.cls-2{fill:#c29958;}.cls-2{stroke:#c29958;stroke-miterlimit:10;stroke-width:0.3px;}</style></defs><title>icons-hbArtboard 2</title><path class="cls-1" d="M25,1.5A23.5,23.5,0,1,1,1.5,25,23.52,23.52,0,0,1,25,1.5M25,0A25,25,0,1,0,50,25,25,25,0,0,0,25,0Z"/><path class="cls-2" d="M41.19,21a1.58,1.58,0,0,0,.11-1.31,1.72,1.72,0,0,0-.86-1l-3.77-1.91a.42.42,0,0,1-.23-.33l-.67-4.23a1.73,1.73,0,0,0-1.68-1.46.57.57,0,0,0-.26,0l-4.23.67a.42.42,0,0,1-.37-.11l-3-3A1.63,1.63,0,0,0,25,7.84a1.73,1.73,0,0,0-1.2.48l-3,3a.41.41,0,0,1-.3.11h-.07l-4.23-.67c-.08,0-.19,0-.26,0a1.66,1.66,0,0,0-1.68,1.46l-.68,4.23a.53.53,0,0,1-.22.33L9.56,18.72a1.72,1.72,0,0,0-.86,1A1.5,1.5,0,0,0,8.81,21l1.94,3.78a.38.38,0,0,1,0,.41L8.81,29a1.58,1.58,0,0,0-.11,1.31,1.72,1.72,0,0,0,.86,1l3.77,1.91a.42.42,0,0,1,.23.33l.67,4.23a1.73,1.73,0,0,0,1.68,1.46.57.57,0,0,0,.26,0l4.23-.67a.42.42,0,0,1,.37.11l3,3a1.63,1.63,0,0,0,1.19.48,1.73,1.73,0,0,0,1.2-.48l3-3a.35.35,0,0,1,.37-.11l4.23.67c.08,0,.19,0,.26,0a1.66,1.66,0,0,0,1.68-1.46l.68-4.23a.53.53,0,0,1,.22-.33l3.82-1.95a1.76,1.76,0,0,0,.86-1A1.58,1.58,0,0,0,41.15,29l-1.94-3.77a.43.43,0,0,1,0-.41Zm-3.06,4.79,1.94,3.77a.57.57,0,0,1,0,.34.48.48,0,0,1-.23.26l-3.81,1.95a1.69,1.69,0,0,0-.9,1.27L34.5,37.6A.46.46,0,0,1,34,38l-4.22-.68a1.91,1.91,0,0,0-1.5.49l-3,3a.46.46,0,0,1-.6,0l-3-3a1.64,1.64,0,0,0-1.2-.49.61.61,0,0,0-.26,0L16,38a.42.42,0,0,1-.49-.37l-.67-4.23a1.78,1.78,0,0,0-.9-1.27L10.15,30.2a.41.41,0,0,1-.22-.26.35.35,0,0,1,0-.34l1.94-3.78a1.68,1.68,0,0,0,0-1.57l-2-3.81a.57.57,0,0,1,0-.34.48.48,0,0,1,.23-.26l3.81-1.95a1.69,1.69,0,0,0,.9-1.27l.67-4.22A.46.46,0,0,1,16,12l4.22.68.27,0h0a1.72,1.72,0,0,0,1.19-.48l3-3a.46.46,0,0,1,.6,0l3,3a1.8,1.8,0,0,0,1.5.48L34,12.06a.42.42,0,0,1,.49.38l.67,4.22a1.78,1.78,0,0,0,.9,1.27l3.82,1.95a.39.39,0,0,1,.22.26.35.35,0,0,1,0,.34l-1.94,3.77A1.68,1.68,0,0,0,38.13,25.79ZM30.5,20.85H27.32V18.64a2.82,2.82,0,0,0-1-2.43,2.91,2.91,0,0,0-2.51-.3.65.65,0,0,0-.45.6v2.77c0,2-2.35,2.69-2.43,2.69s-.11,0-.18.08a1.32,1.32,0,0,0-.83-.3H18a1.34,1.34,0,0,0-1.35,1.34V29.9A1.34,1.34,0,0,0,18,31.24h1.94a1.27,1.27,0,0,0,.9-.37,2.38,2.38,0,0,0,1.61.6h6.73A2.61,2.61,0,0,0,32,29.11l.9-5.76v-.11A2.33,2.33,0,0,0,30.5,20.85ZM20,29.94a.09.09,0,0,1-.08.07H18a.09.09,0,0,1-.08-.07V23.09A.09.09,0,0,1,18,23h1.94a.09.09,0,0,1,.08.07Zm10.77-1h0c0,.34-.15,1.28-1.57,1.28H22.46a1.17,1.17,0,0,1-1.16-1.16V23.21h0c.15,0,3.36-1,3.36-3.93V17.07a1.36,1.36,0,0,1,.94.19,1.6,1.6,0,0,1,.48,1.38v2.84a.66.66,0,0,0,.64.64h3.81a1.13,1.13,0,0,1,1.16,1.12Z"/></svg>