<svg id="Layer_1" data-name="Layer 1" xmlns="http://www.w3.org/2000/svg" viewBox="0 0 50 50"><defs><style>.cls-1,.cls-2{fill:#c29958;}.cls-2{stroke:#c29958;stroke-miterlimit:10;stroke-width:0.5px;}</style></defs><title>icons-hbArtboard 3</title><path class="cls-1" d="M25,1.5A23.5,23.5,0,1,1,1.5,25,23.52,23.52,0,0,1,25,1.5M25,0A25,25,0,1,0,50,25,25,25,0,0,0,25,0Z"/><path class="cls-2" d="M37.6,32.68a19.14,19.14,0,0,1-2.52-9.49V21.38A10.16,10.16,0,0,0,28,11.76v-.55a3.05,3.05,0,1,0-6.1,0h0v.59a10.14,10.14,0,0,0-7.06,9.58v1.83a19.07,19.07,0,0,1-2.52,9.47l-1.61,2.81a.59.59,0,0,0,.22.81.61.61,0,0,0,.3.08h8.86a4.93,4.93,0,0,0,9.72,0h8.89a.59.59,0,0,0,.6-.59.61.61,0,0,0-.08-.3ZM23.11,11.29v-.08a1.86,1.86,0,1,1,3.72,0v.1Zm1.86,28a3.72,3.72,0,0,1-3.64-2.93h7.28a3.71,3.71,0,0,1-3.61,3ZM12.28,35.21l1.09-1.93a20.2,20.2,0,0,0,2.68-10.06V21.38a8.91,8.91,0,0,1,17.82,0v1.83a20.33,20.33,0,0,0,2.7,10.07l1.1,1.91Z"/><path class="cls-2" d="M12.54,21.5a.58.58,0,0,0-.82.14,5.86,5.86,0,0,0,0,6.74.59.59,0,1,0,1-.68,4.71,4.71,0,0,1,0-5.37A.6.6,0,0,0,12.54,21.5Z"/><path class="cls-2" d="M8.3,25a8.2,8.2,0,0,1,1.48-4.72.6.6,0,0,0-.94-.73l0,.05a9.45,9.45,0,0,0,0,10.8.61.61,0,0,0,.85.13.59.59,0,0,0,.13-.84h0A8.18,8.18,0,0,1,8.3,25Z"/><path class="cls-2" d="M37.46,21.5a.6.6,0,0,0-.15.83,4.68,4.68,0,0,1,0,5.37.6.6,0,1,0,1,.68,5.9,5.9,0,0,0,0-6.74.6.6,0,0,0-.83-.15Z"/><path class="cls-2" d="M40.37,19.46a.6.6,0,0,0-.15.83,8.23,8.23,0,0,1,0,9.43.61.61,0,0,0,.14.84.62.62,0,0,0,.84-.15,9.45,9.45,0,0,0,0-10.8A.6.6,0,0,0,40.37,19.46Z"/></svg>