<svg id="Layer_1" data-name="Layer 1" xmlns="http://www.w3.org/2000/svg" viewBox="0 0 50 50"><defs><style>.cls-1{fill:#c29958;}</style></defs><title>icons-hbArtboard 4</title><path class="cls-1" d="M25,1.5A23.5,23.5,0,1,1,1.5,25,23.52,23.52,0,0,1,25,1.5M25,0A25,25,0,1,0,50,25,25,25,0,0,0,25,0Z"/><path class="cls-1" d="M21.07,9.28a4.66,4.66,0,0,1,4.09,2.43,4.28,4.28,0,1,1,6.6,5.43h6.82a2.16,2.16,0,0,1,2.14,2.14v3.58A2.16,2.16,0,0,1,38.58,25h-.36V38.58a2.16,2.16,0,0,1-2.14,2.14H13.92a2.16,2.16,0,0,1-2.14-2.14V25h-.36a2.16,2.16,0,0,1-2.14-2.14V19.28a2.16,2.16,0,0,1,2.14-2.14h6.3a4.64,4.64,0,0,1,3.35-7.86Zm0,1.43a3.22,3.22,0,1,0,0,6.43h3.22V13.92A3.21,3.21,0,0,0,21.07,10.71Zm7.5.71a2.85,2.85,0,0,0-2.86,2.86v2.86h2.86a2.86,2.86,0,0,0,0-5.72Zm10,7.15h-10v5h10a.69.69,0,0,0,.71-.71V19.28A.69.69,0,0,0,38.58,18.57Zm-11.44,0H22.86v5h4.28Zm-5.71,0h-10a.69.69,0,0,0-.71.71v3.58a.69.69,0,0,0,.71.71h10ZM36.79,25H28.57V39.29h7.51a.69.69,0,0,0,.71-.71Zm-9.65,0H22.86V39.29h4.28Zm-5.71,0H13.21V38.58a.69.69,0,0,0,.71.71h7.51Z"/></svg>