<svg id="Layer_1" data-name="Layer 1" xmlns="http://www.w3.org/2000/svg" viewBox="0 0 50 50"><defs><style>.cls-1{fill:#c29958;}</style></defs><title>icons-hbArtboard 1</title><path class="cls-1" d="M25,1.5A23.5,23.5,0,1,1,1.5,25,23.52,23.52,0,0,1,25,1.5M25,0A25,25,0,1,0,50,25,25,25,0,0,0,25,0Z"/><path class="cls-1" d="M43.68,26.81a3.78,3.78,0,0,0-1-2.56L37,17.83a.69.69,0,0,0-.59-.28h-7a.78.78,0,0,0-.78.79v6.54H14a2.37,2.37,0,0,0-2.37,2.36V32a2.37,2.37,0,0,0,2.29,2.37,3.94,3.94,0,0,0,7.72,0H33.35a3.94,3.94,0,0,0,7.73,0h.31a2.56,2.56,0,0,0,1.7-.71,2.49,2.49,0,0,0,.67-1.7ZM17.75,36a2.33,2.33,0,1,1,2.36-2.32A2.32,2.32,0,0,1,17.75,36Zm19.47,0a2.33,2.33,0,1,1,2.32-2.32A2.28,2.28,0,0,1,37.3,36ZM42,32.56a.84.84,0,0,1-.56.24H41a3.93,3.93,0,0,0-3.82-3,3.87,3.87,0,0,0-3.79,3H21.57a3.93,3.93,0,0,0-3.82-3,3.85,3.85,0,0,0-3.78,3,.83.83,0,0,1-.79-.79V27.24a.78.78,0,0,1,.79-.78H29.41a.79.79,0,0,0,.79-.79V19.13h5.87l5.44,6.18a2.2,2.2,0,0,1,.59,1.54L42.18,32A.8.8,0,0,1,42,32.56Z"/><path class="cls-1" d="M35.44,20.9a.68.68,0,0,0-.59-.28h-2.4a.79.79,0,0,0-.79.79v4.26a.79.79,0,0,0,.79.79h6a.79.79,0,0,0,.59-1.3Zm-2.2,4V22.2H34.5l2.28,2.68Z"/><path class="cls-1" d="M26.06,23.54a.79.79,0,0,0,.79-.79v-9.5a.78.78,0,0,0-.79-.78H15a.79.79,0,0,0-.79.78v9.5a.79.79,0,0,0,.79.79ZM19.68,14h1.65v1.22H19.68Zm-3.94,0H18.1v2a.79.79,0,0,0,.79.79h3.23a.74.74,0,0,0,.79-.71V14h2.37V22H15.74Z"/><path class="cls-1" d="M7.7,14.44a.78.78,0,0,0,.79.78H11.6a.78.78,0,0,0,.79-.78.75.75,0,0,0-.71-.79H8.49a.74.74,0,0,0-.79.7Z"/><path class="cls-1" d="M7,18.89H11.6a.79.79,0,1,0,0-1.58H7a.79.79,0,0,0,0,1.58Z"/><path class="cls-1" d="M12.39,21.81A.79.79,0,0,0,11.6,21H8.49a.79.79,0,1,0,0,1.57H11.6A.78.78,0,0,0,12.39,21.81Z"/><path class="cls-1" d="M25,1.5A23.5,23.5,0,1,1,1.5,25,23.52,23.52,0,0,1,25,1.5M25,0A25,25,0,1,0,50,25,25,25,0,0,0,25,0Z"/></svg>