<svg xmlns="http://www.w3.org/2000/svg" viewBox="0 0 476.86 120.39"><defs><style>.cls-1{fill:#fff;}.cls-2{fill:#c29958;}</style></defs><title>logotypeAsset 2</title><g id="Layer_2" data-name="Layer 2"><g id="Layer_1-2" data-name="Layer 1"><path class="cls-1" d="M277.83,51.13c0,.39-.41.58-1.23.58H262.39c-.86,0-1.29-.17-1.29-.52s1-.58,3-.71c1.08-.09,1.7-.28,1.87-.56a9.23,9.23,0,0,0,.26-3v-19H246.59v18.5c0,2,.15,3.11.45,3.46s1.33.59,3.08.72c1.13.09,1.7.28,1.7.59s-.44.58-1.31.58H236.32c-.87,0-1.3-.17-1.3-.52s.43-.56,1.3-.65l1.77-.13a2.59,2.59,0,0,0,1.83-.65,15.7,15.7,0,0,0,.2-3.66V11.64a10.57,10.57,0,0,0-.3-3.46c-.2-.35-.88-.54-2.06-.59-1.35-.09-2.14-.16-2.38-.2s-.36-.23-.36-.55.28-.55.85-.55l1.11.06q1.64.14,7.71.13c2.22,0,3.77,0,4.64-.1a6.36,6.36,0,0,1,1.18-.09c.78,0,1.17.22,1.17.65s-.7.59-2.12.59S247.29,7.7,247,8s-.42,1.37-.42,3.12V26.22h19.67V12.12c0-2.31-.17-3.68-.52-4.1s-1.57-.6-3.66-.55c-.66,0-1-.2-1-.59s.37-.59,1.11-.59h14.25c.91,0,1.37.19,1.37.59s-1,.61-2.88.65a4.18,4.18,0,0,0-1.24.13,1.12,1.12,0,0,0-.82.72,16.57,16.57,0,0,0-.16,3.07V46.22a11.07,11.07,0,0,0,.32,3.67c.43.47,1.68.71,3.75.71C277.49,50.52,277.83,50.69,277.83,51.13Z"/><path class="cls-1" d="M337.12,29.29a24.3,24.3,0,0,1-5.85,16.48,18.31,18.31,0,0,1-14.35,6.73,19.61,19.61,0,0,1-15.17-6.83,24.29,24.29,0,0,1-6.14-16.83q0-10.2,5.91-16.7a19.55,19.55,0,0,1,15.14-6.51,18.52,18.52,0,0,1,14.57,6.8Q337.11,19.23,337.12,29.29Zm-7.33.34q0-12-4.9-18.69a10,10,0,0,0-8.56-4.2c-3.49,0-6.19,1.08-8.11,3.22q-5.3,5.9-5.29,19.21,0,10.55,3.69,16.38A11.63,11.63,0,0,0,317,51.39a10.13,10.13,0,0,0,9.35-5.51Q329.79,39.79,329.79,29.63Z"/><path class="cls-1" d="M389.14,46.55c0,1.13-.06,3-.19,5.62h-.72c-.26,0-.89,0-1.89-.13s-2.13-.13-3.39-.13l-27.14-.2c-.75,0-1.11-.19-1.11-.58s.58-.5,1.76-.59c1.66-.09,2.65-.27,3-.56s.5-1.1.5-2.45V10.8c0-1.61-.17-2.55-.5-2.81s-1.49-.4-3.49-.4c-.83,0-1.24-.24-1.24-.71s.26-.59.78-.59h.59q2.16.19,8.56.19c.39,0,1.16,0,2.29-.1s2.07-.09,2.81-.09h.72c.78,0,1.18.22,1.18.65a.46.46,0,0,1-.36.49,14.91,14.91,0,0,1-2.26.16c-1.26,0-2,.26-2.25.63a8.92,8.92,0,0,0-.36,3.43V50.21c1.17,0,2.81.07,4.9.07a50,50,0,0,0,10.78-.79,6.06,6.06,0,0,0,4.25-2.94,14.51,14.51,0,0,0,1.31-5.82c0-.56.29-.85.75-.85s.8.33.75,1v5.69Z"/><path class="cls-1" d="M445.16,51.29c0,.37-.33.56-1,.56a10.27,10.27,0,0,1-1.18-.07l-8.3-.26-8.3.26a7.53,7.53,0,0,1-1,.07c-.87,0-1.31-.23-1.31-.69s.59-.75,1.77-.75c3.83,0,5.75-.43,5.75-1.16a4.41,4.41,0,0,0-.14-.51L431,47l-.33-.91c-.4-1.35-1.35-4.34-2.88-9h-14q-3.91,10.45-3.92,12a1,1,0,0,0,.79,1.11c.13,0,1.22.13,3.26.26,1.27,0,1.9.26,1.9.65s-.57.66-1.7.66c-2,0-4.34-.09-7-.27-.66,0-1.33-.06-2-.06a9.09,9.09,0,0,0-2,.22,4.49,4.49,0,0,1-.85.11c-.61,0-.91-.2-.91-.6s.69-.61,2.06-.65a6.33,6.33,0,0,0,3-.62,3.79,3.79,0,0,0,1.44-2.13q8.42-24.13,13.69-38.77a7.23,7.23,0,0,1,.61-1.73l.28-1.19c.13-.48.3-.72.52-.72s.24.13.33.39q.84,2.55,3.85,10.65,2.35,6.35,11.7,31.84a3.17,3.17,0,0,0,1.34,1.88,9.71,9.71,0,0,0,3.37.47C444.59,50.71,445.16,50.92,445.16,51.29ZM427.45,35.63q-1.06-2.93-3.53-9.74l-3.14-9.06q-2.75,7.25-6.62,18.8Z"/><path class="cls-1" d="M267.5,105.18a10.46,10.46,0,0,1-6.08,9.87,21.5,21.5,0,0,1-8.43,2q-1.5.08-8.89.07h-8c-.74,0-1.11-.19-1.11-.56s.67-.55,2-.55c1.57,0,2.5-.17,2.78-.49s.43-1.32.43-3V77.14a11,11,0,0,0-.26-3.33c-.31-.52-1.42-.81-3.34-.85-1.18,0-1.76-.23-1.76-.69s.54-.62,1.63-.62h.78a5.1,5.1,0,0,0,1.31.2h12.75q7,.06,10.52,2.35A8.76,8.76,0,0,1,265.93,82a9.17,9.17,0,0,1-3.33,7.29q-3.33,2.83-9.35,3.56v.39q6,.39,9.28,2.48A10.46,10.46,0,0,1,267.5,105.18Zm-8.76-22.55c0-4.18-.95-7-2.87-8.36-1-.74-2.9-1.11-5.69-1.11-.74,0-1.89.06-3.46.19v19h.59l3.59-.13a7.37,7.37,0,0,0,5.78-2.64A10.55,10.55,0,0,0,258.74,82.63Zm1.9,21.83q0-8.23-6.67-10.19a29.5,29.5,0,0,0-7.25-.59v19.48c0,1.26.13,2,.39,2.15.43.31,1.66.46,3.66.46A9.38,9.38,0,0,0,258,112.9C259.74,111,260.64,108.17,260.64,104.46Z"/><path class="cls-1" d="M320.32,106.56c0,.17-.05,1.24-.13,3.2s-.14,3.83-.14,5.62v2.16q-6.41-.39-25.36-.4h-8.17c-.82,0-1.24-.17-1.24-.52s.13-.37.39-.41l2.49-.18c1.13-.09,1.82-.32,2.06-.72a7.85,7.85,0,0,0,.36-3.08V75.38c0-1.26-.19-2-.56-2.26a9.5,9.5,0,0,0-3.56-.36c-.7,0-1-.18-1-.55s.48-.56,1.44-.56h27.71a23.41,23.41,0,0,0,3.6-.26c.09,1.87.28,4.47.59,7.78L319,82a4.88,4.88,0,0,1,.06.85c0,.43-.19.65-.58.65s-.83-.55-1.05-1.64q-1.24-5.93-4.05-7.5-2.1-1.19-11-1.18h-5.36V92.37h1.57q7.32,0,8.92-1.11c1.06-.74,1.8-2.9,2.19-6.47.08-.92.32-1.37.72-1.37s.71.39.71,1.17,0,1.94-.13,3.47-.13,2.68-.13,3.46q0,7,.21,9.61c0,.44.05.81.05,1.11,0,.57-.23.85-.71.85-.3,0-.51-.18-.62-.55s-.29-1.58-.55-3.63q-.52-3.85-3.19-4.77a26.92,26.92,0,0,0-6.12-.4h-2.92v21.9q14.37,0,16.86-.58,4.32-1,4.9-8.26c.09-1.08.37-1.62.85-1.62S320.32,105.64,320.32,106.56Z"/><path class="cls-1" d="M370.91,111.91c0,1.14-.07,3-.2,5.63H370c-.26,0-.89-.05-1.89-.13s-2.13-.13-3.39-.13l-27.14-.2c-.74,0-1.11-.2-1.11-.59s.59-.5,1.77-.59a6.38,6.38,0,0,0,3-.55c.33-.29.49-1.1.49-2.45V76.16c0-1.61-.16-2.55-.49-2.81s-1.49-.39-3.5-.39c-.83,0-1.24-.24-1.24-.72s.26-.59.78-.59h.59c1.44.13,4.29.2,8.57.2.39,0,1.15,0,2.28-.1s2.07-.1,2.81-.1h.72c.79,0,1.18.22,1.18.65a.45.45,0,0,1-.36.49,14.11,14.11,0,0,1-2.25.17c-1.27,0-2,.25-2.26.62a8.92,8.92,0,0,0-.36,3.43v38.56c1.18.05,2.81.07,4.9.07a50.94,50.94,0,0,0,10.79-.78,6.13,6.13,0,0,0,4.25-3,14.47,14.47,0,0,0,1.3-5.81c0-.57.29-.85.75-.85s.8.33.76,1v5.68Z"/><path class="cls-1" d="M420.84,111.91c0,1.14-.06,3-.19,5.63h-.72c-.26,0-.89-.05-1.89-.13s-2.13-.13-3.39-.13l-27.14-.2c-.74,0-1.11-.2-1.11-.59s.59-.5,1.76-.59a6.4,6.4,0,0,0,3-.55c.32-.29.49-1.1.49-2.45V76.16c0-1.61-.17-2.55-.49-2.81s-1.5-.39-3.5-.39c-.83,0-1.24-.24-1.24-.72s.26-.59.78-.59h.59q2.16.19,8.56.2c.39,0,1.16,0,2.29-.1s2.07-.1,2.81-.1h.72c.79,0,1.18.22,1.18.65a.45.45,0,0,1-.36.49,14.16,14.16,0,0,1-2.26.17c-1.26,0-2,.25-2.25.62A8.92,8.92,0,0,0,398.1,77v38.56c1.17.05,2.81.07,4.9.07a51,51,0,0,0,10.79-.78,6.1,6.1,0,0,0,4.24-3,14.29,14.29,0,0,0,1.31-5.81c0-.57.29-.85.75-.85s.8.33.75,1v5.68Z"/><path class="cls-1" d="M476.86,116.65c0,.37-.33.56-1,.56a8.51,8.51,0,0,1-1.18-.07l-8.3-.26-8.3.26a6,6,0,0,1-1,.07c-.87,0-1.31-.23-1.31-.68s.59-.76,1.77-.76c3.83,0,5.75-.43,5.75-1.15a3.41,3.41,0,0,0-.13-.51l-.54-1.73-.33-.91c-.39-1.36-1.35-4.34-2.87-9h-14c-2.61,7-3.92,11-3.92,12a1,1,0,0,0,.79,1.11c.13,0,1.22.13,3.27.26q1.89.06,1.89.66c0,.43-.56.65-1.7.65q-3,0-7-.26c-.65,0-1.33-.07-2-.07a9.62,9.62,0,0,0-2,.22,4.59,4.59,0,0,1-.85.11c-.61,0-.92-.2-.92-.59s.69-.61,2.06-.66a6.33,6.33,0,0,0,3-.62,3.76,3.76,0,0,0,1.44-2.13q8.41-24.13,13.69-38.76a7.29,7.29,0,0,1,.61-1.74l.28-1.19c.13-.48.3-.72.52-.72s.24.13.33.39q.84,2.55,3.85,10.66,2.36,6.33,11.7,31.83a3.14,3.14,0,0,0,1.34,1.88,9.47,9.47,0,0,0,3.37.47C476.29,116.08,476.86,116.28,476.86,116.65ZM459.15,101l-3.52-9.74-3.14-9.06q-2.76,7.23-6.63,18.8Z"/><path class="cls-2" d="M106,118.84c0,1-1,1.55-3,1.55H67.75q-3.21,0-3.21-1.38c0-.91,2.5-1.55,7.5-1.89,2.67-.23,4.21-.71,4.64-1.46s.64-3.41.64-8V57.5H28.63v48.76q0,7.76,1.13,9.13t7.6,1.89c2.81.24,4.21.75,4.21,1.56,0,1-1.08,1.55-3.24,1.55H3.24Q0,120.39,0,119c0-.91,1.08-1.49,3.24-1.72L7.6,117c2.37-.23,3.88-.81,4.53-1.72.32-.58.49-3.79.49-9.64V14.76c0-5.16-.25-8.2-.73-9.12S9.7,4.21,6.79,4.09q-5-.36-5.9-.54C.3,3.43,0,2.94,0,2.1S.7.64,2.1.64c.43,0,1.35.06,2.75.18q4.05.35,19.09.34c5.5,0,9.32-.08,11.48-.26A13.66,13.66,0,0,1,38.33.64c2,0,2.92.58,2.92,1.73S39.49,3.93,36,3.93s-5.61.43-6.31,1.3-1.05,3.6-1.05,8.21V53.19H77.32V16q0-9.17-1.3-10.8T67,3.76c-1.61,0-2.42-.52-2.42-1.56S65.45.64,67.29.64h35.26c2.26,0,3.4.52,3.4,1.56s-2.38,1.61-7.12,1.72a9.93,9.93,0,0,0-3.07.34,2.83,2.83,0,0,0-2,1.9q-.41,1.38-.4,8.1v91.65c0,5.52.26,8.73.8,9.65q1.59,1.91,9.26,1.9C105.09,117.23,106,117.69,106,118.84Z"/><path class="cls-2" d="M203.26,88.39q0,17.56-17.38,26-8.41,4.14-24.12,5.17-4.31.18-25.43.17h-22.8c-2.12,0-3.18-.49-3.18-1.46s1.93-1.47,5.79-1.47q6.74,0,8-1.29t1.21-7.84V14.47q0-7.58-.74-8.78c-.88-1.38-4-2.13-9.54-2.24-3.36,0-5-.61-5-1.82S111.53,0,114.65,0h2.24a15.23,15.23,0,0,0,3.74.52h36.46q20.19.17,30.09,6.2,11.59,7.07,11.6,20.5,0,11.73-9.54,19.21t-26.73,9.39v1q17,1,26.54,6.54Q203.26,71.68,203.26,88.39ZM178.21,29q0-16.54-8.23-22.06Q165.69,4,153.72,4c-2.12,0-5.42.18-9.91.52v50h1.69l10.28-.34q10.65-.35,16.54-7T178.21,29Zm5.42,57.54q0-21.7-19.07-26.88-5.59-1.55-20.75-1.55V109.4c0,3.34.38,5.23,1.12,5.69,1.25.8,4.74,1.21,10.47,1.21q12.9,0,20.57-7.58T183.63,86.49Z"/></g></g></svg>